<?xml version="1.0" encoding="iso-8859-1"?>
<!-- Uploaded to: SVG Repo, www.svgrepo.com, Generator: SVG Repo Mixer Tools -->
<svg version="1.1" id="Layer_1" xmlns="http://www.w3.org/2000/svg" xmlns:xlink="http://www.w3.org/1999/xlink" 
	 viewBox="0 0 512 512" xml:space="preserve">
<path d="M375.467,106.667h-34.133V89.6c0-4.71-3.823-8.533-8.533-8.533h-51.2c-4.71,0-8.533,3.823-8.533,8.533v51.2
	c0,4.71,3.823,8.533,8.533,8.533h51.2c4.71,0,8.533-3.823,8.533-8.533v-17.067h34.133c66.987,0,119.467,58.112,119.467,132.267
	c0,72.021-52.736,130.048-119.723,132.181l-33.877,0.085V371.2c0-4.71-3.823-8.533-8.533-8.533h-51.2
	c-4.71,0-8.533,3.823-8.533,8.533v17.067h-204.8V371.2c0-4.71-3.823-8.533-8.533-8.533h-51.2C3.823,362.667,0,366.49,0,371.2v51.2
	c0,4.71,3.823,8.533,8.533,8.533h51.2c4.71,0,8.533-3.823,8.533-8.533v-17.067h204.8V422.4c0,4.71,3.823,8.533,8.533,8.533h51.2
	c4.71,0,8.533-3.823,8.533-8.533v-17.067l34.133-0.085C452.011,402.859,512,337.237,512,256
	C512,172.288,452.011,106.667,375.467,106.667z M324.267,132.267h-34.133V98.133h34.133V132.267z M51.2,413.867H17.067v-34.133H51.2
	V413.867z M324.267,413.867h-34.133v-34.133h34.133V413.867z"/>
<rect x="17.067" y="379.733" style="fill:#FDB50D;" width="34.133" height="34.133"/>
<rect x="290.133" y="379.733" style="fill:#40A33F;" width="34.133" height="34.133"/>
<rect x="290.133" y="98.133" style="fill:#FDB50D;" width="34.133" height="34.133"/>
<rect x="315.733" y="379.733" style="fill:#2E7E2E;" width="8.533" height="34.133"/>
<g>
	<rect x="42.667" y="379.733" style="fill:#F6981E;" width="8.533" height="34.133"/>
	<rect x="315.733" y="98.133" style="fill:#F6981E;" width="8.533" height="34.133"/>
</g>
</svg>